<?xml version="1.0" standalone="no"?>
<!DOCTYPE svg PUBLIC "-//W3C//DTD SVG 20010904//EN"
 "http://www.w3.org/TR/2001/REC-SVG-20010904/DTD/svg10.dtd">
<svg version="1.0" xmlns="http://www.w3.org/2000/svg"
 width="1000.000000pt" height="785.000000pt" viewBox="0 0 1000.000000 785.000000"
 preserveAspectRatio="xMidYMid meet">

<g transform="translate(0.000000,785.000000) scale(0.100000,-0.100000)"
fill="#000000" stroke="none">
<path d="M3935 6446 c-116 -24 -258 -100 -354 -190 -105 -100 -184 -237 -222
-386 -18 -72 -19 -152 -19 -2343 -1 -1696 2 -2273 11 -2290 44 -85 108 -105
283 -88 137 13 246 37 371 82 413 145 737 505 838 929 9 36 21 88 28 115 15
64 24 2706 11 3220 -10 387 -11 394 -82 540 -98 200 -278 345 -502 404 -89 24
-261 27 -363 7z"/>
<path d="M5805 5730 c-129 -28 -285 -135 -351 -240 -85 -136 -110 -230 -101
-379 13 -221 131 -399 332 -499 332 -165 753 37 840 403 19 78 19 203 0 274
-16 64 -74 180 -108 219 -95 110 -152 153 -262 197 -61 24 -86 28 -190 31 -66
2 -138 -1 -160 -6z"/>
<path d="M5469 4090 c-57 -10 -95 -33 -117 -74 -15 -28 -16 -99 -14 -851 2
-784 4 -854 33 -990 53 -254 233 -551 431 -713 238 -194 440 -276 767 -313
124 -14 200 -8 244 20 67 41 64 8 70 731 8 789 0 1029 -37 1180 -43 171 -86
269 -190 424 -207 312 -564 530 -939 575 -132 16 -199 19 -248 11z"/>
</g>
</svg>
